<svg width="21" height="21" viewBox="0 0 21 21" fill="white" xmlns="http://www.w3.org/2000/svg">
<path d="M10.5 0.083374C4.74998 0.083374 0.083313 4.75004 0.083313 10.5C0.083313 16.25 4.74998 20.9167 10.5 20.9167C16.25 20.9167 20.9166 16.25 20.9166 10.5C20.9166 4.75004 16.25 0.083374 10.5 0.083374ZM10.5 3.20837C12.2291 3.20837 13.625 4.60421 13.625 6.33337C13.625 8.06254 12.2291 9.45837 10.5 9.45837C8.77081 9.45837 7.37498 8.06254 7.37498 6.33337C7.37498 4.60421 8.77081 3.20837 10.5 3.20837ZM10.5 18C7.89581 18 5.59373 16.6667 4.24998 14.6459C4.28123 12.573 8.41665 11.4375 10.5 11.4375C12.5729 11.4375 16.7187 12.573 16.75 14.6459C15.4062 16.6667 13.1041 18 10.5 18Z" fill="#545454"/>
</svg>