<svg width="40" height="40" viewBox="0 0 40 40" fill="none" xmlns="http://www.w3.org/2000/svg">
<rect width="40" height="40" rx="20" fill="#0091E2"/>
<g clip-path="url(#clip0_725_31374)">
<path d="M29.2234 31.5952C28.5831 31.3076 27.3294 30.8029 26.1898 30.3633C25.9673 33.3101 23.5089 35.6654 20.4915 35.6654C17.4741 35.6654 15.0158 33.3318 14.7932 30.3633C13.6482 30.8028 12.3728 31.3076 11.7596 31.6169C9.86556 32.4961 8.21582 33.5977 8.21582 35.6219V40.0015H32.7836V35.6219C32.7672 33.5761 31.0957 32.4581 29.2234 31.5952Z" fill="#FF667C"/>
<path d="M28.0132 20.8644H23.2646V14.7266H26.1463C27.1775 14.7266 28.0186 15.5623 28.0186 16.5989V20.8644H28.0132Z" fill="#4A0077"/>
<path d="M27.992 10.8791C27.7967 8.94164 26.2771 7.36241 24.3614 7.05306C23.6777 6.94452 23.0427 7.00966 22.4458 7.18335C23.2815 7.5361 23.8296 8.39354 23.7645 9.35953C23.6777 10.5263 22.6628 11.4055 21.5014 11.4055H16.2862C14.4627 11.4055 12.9648 12.8816 12.9648 14.7268V15.6711V21.1034H18.1801V15.7145H23.6776C26.2336 15.7145 28.258 13.4731 27.992 10.8791Z" fill="#4A0077"/>
<path d="M15.0868 19.6548C14.8806 19.5951 14.6689 19.5625 14.441 19.5625C13.1548 19.5625 12.1074 20.6045 12.1074 21.8961C12.1074 23.1822 13.1494 24.2297 14.441 24.2297C14.6636 24.2297 14.8806 24.1971 15.0868 24.1374V19.6548Z" fill="#EEB490"/>
<path d="M26.5862 19.5664C26.3637 19.5664 26.1467 19.599 25.9404 19.6587V24.1413C26.1467 24.201 26.3583 24.2336 26.5862 24.2336C27.8724 24.2336 28.9198 23.1916 28.9198 21.9C28.9145 20.6084 27.8725 19.5664 26.5862 19.5664Z" fill="#EEB490"/>
<path d="M23.8133 29.4389L23.5474 27.7891H17.4366L17.1924 29.4605C17.1924 29.4605 16.069 29.8784 14.8154 30.3614C15.038 33.3082 17.4963 35.6635 20.5137 35.6635C23.5312 35.6635 25.9895 33.33 26.212 30.3614C24.9367 29.8568 23.8133 29.4389 23.8133 29.4389Z" fill="#EEB490"/>
<path d="M23.5688 15.7148H17.4146C15.9656 15.7148 14.7988 16.8816 14.7988 18.3307V24.2243C14.7988 27.3719 17.3495 29.9443 20.5188 29.9443C23.6664 29.9443 26.2387 27.3936 26.2387 24.2243V18.3361C26.2117 16.8816 25.0232 15.7148 23.5688 15.7148Z" fill="#FACCB4"/>
</g>
<defs>
<clipPath id="clip0_725_31374">
<rect width="33" height="33" fill="white" transform="translate(4 7)"/>
</clipPath>
</defs>
</svg>